<svg xmlns="http://www.w3.org/2000/svg" width="512" height="512" viewBox="0 0 512 512">
  <rect width="512" height="512" rx="64" fill="#0a0a0a"/>
  <!-- Equalizer bars -->
  <g fill="#67e8f9">
    <rect x="80" y="280" width="32" height="120" rx="4"/>
    <rect x="128" y="200" width="32" height="200" rx="4"/>
    <rect x="176" y="140" width="32" height="260" rx="4"/>
    <rect x="224" y="100" width="32" height="300" rx="4"/>
    <rect x="272" y="60" width="32" height="340" rx="4"/>
    <rect x="320" y="120" width="32" height="280" rx="4"/>
    <rect x="368" y="180" width="32" height="220" rx="4"/>
    <rect x="416" y="240" width="32" height="160" rx="4"/>
  </g>
  <!-- Peak indicators -->
  <g fill="#3b82f6">
    <rect x="80" y="264" width="32" height="8" rx="2"/>
    <rect x="128" y="184" width="32" height="8" rx="2"/>
    <rect x="176" y="124" width="32" height="8" rx="2"/>
    <rect x="224" y="84" width="32" height="8" rx="2"/>
    <rect x="272" y="44" width="32" height="8" rx="2"/>
    <rect x="320" y="104" width="32" height="8" rx="2"/>
    <rect x="368" y="164" width="32" height="8" rx="2"/>
    <rect x="416" y="224" width="32" height="8" rx="2"/>
  </g>
</svg>
